<svg xmlns="http://www.w3.org/2000/svg" viewBox="0 0 512 512">
  <defs>
    <linearGradient id="bg" x1="0" y1="0" x2="1" y2="1">
      <stop offset="0%" stop-color="#0f3d2e"/>
      <stop offset="100%" stop-color="#1f7a53"/>
    </linearGradient>
  </defs>
  <rect width="512" height="512" rx="110" fill="url(#bg)"/>
  <circle cx="256" cy="256" r="172" fill="#f5f7ef" opacity="0.12"/>
  <path d="M156 286c50 64 141 59 200-10 39-45 49-106 26-165-47 29-86 72-111 123-11 22-20 42-25 63-10-4-20-8-30-11-20-6-39-6-60 0z" fill="#e3f067"/>
  <path d="M282 142c37 9 71 38 92 79-29-11-57-20-89-20-27 0-53 5-79 14 16-35 42-60 76-73z" fill="#a9d36d"/>
</svg>
