<svg xmlns="http://www.w3.org/2000/svg" viewBox="0 0 192 192">
  <defs>
    <linearGradient id="bg" x1="0" y1="0" x2="1" y2="1">
      <stop offset="0%" stop-color="#0f3d2e"/>
      <stop offset="100%" stop-color="#1f7a53"/>
    </linearGradient>
  </defs>
  <rect width="192" height="192" rx="40" fill="url(#bg)"/>
  <circle cx="96" cy="96" r="62" fill="#f5f7ef" opacity="0.14"/>
  <path d="M58 106c18 22 52 20 73-3 14-16 18-39 10-59-17 10-31 26-40 44-4 8-7 15-9 23-4-2-7-3-11-5z" fill="#e3f067"/>
  <path d="M106 54c14 4 26 15 33 30-10-4-20-8-32-8-9 0-19 2-28 5 6-13 15-22 27-27z" fill="#a9d36d"/>
</svg>
